<svg id="icon-0" xmlns="http://www.w3.org/2000/svg" viewBox="0 0 998.35 365.99"><title>logo-oficial</title><g id="tight-bounds"><path id="yj-0" d="M386.94,1h0c2.1,0,3.81,4.47,3.81,10V357c0,5.51-1.71,10-3.81,10h0c-2.11,0-3.82-4.47-3.82-10V11C383.12,5.47,384.83,1,386.94,1Z" transform="translate(0 -1)"/><g id="text-0"><path d="M421.26,90.28V9.46h29.63a80.87,80.87,0,0,1,22.54,2.79,44,44,0,0,1,15.86,8,32.28,32.28,0,0,1,9.37,12.62,43.33,43.33,0,0,1,3.07,16.67h0a42.76,42.76,0,0,1-3.05,16.27,34,34,0,0,1-9.32,12.92,44.18,44.18,0,0,1-15.82,8.53A73.81,73.81,0,0,1,451,90.33h0Zm16.4-14.17h17.26a40.14,40.14,0,0,0,12.88-1.88A25.31,25.31,0,0,0,477,68.87a21.8,21.8,0,0,0,5.57-8.37,31,31,0,0,0,1.84-11h0a29.51,29.51,0,0,0-1.84-10.72A21.08,21.08,0,0,0,477,30.68a25.69,25.69,0,0,0-9.23-5.15,41.69,41.69,0,0,0-12.88-1.8H437.66Zm80.5,14.17V9.46H587V23.84H534.56V40H581V53.47H534.56V76h53.52V90.28Z" transform="translate(0 -1)"/><path d="M421.22,179.69V98.86h16.37V120h50.29V98.86h16.43v80.83H487.88V134H437.59v45.71Zm104,0V98.86h16.49v80.83Zm37.38,0V98.86h68.84v14.38H579v16.14h46.45v13.49H579v22.5H632.5v14.32Zm88.13,0V98.86H691.8a59.14,59.14,0,0,1,16.14,2,31.17,31.17,0,0,1,11.33,5.61,22.58,22.58,0,0,1,6.7,8.94,30.93,30.93,0,0,1,2.2,12h0a32.74,32.74,0,0,1-1.1,8.55,25.23,25.23,0,0,1-3.33,7.48,25.75,25.75,0,0,1-5.65,6.08,31.12,31.12,0,0,1-8,4.4h0l17.58,25.87H707.58l-15.21-23h-.46l-24.83,0v23Zm16.37-37.18h25.14a26.86,26.86,0,0,0,8.14-1.1,16.42,16.42,0,0,0,5.84-3,12.1,12.1,0,0,0,3.52-4.78,16.21,16.21,0,0,0,1.16-6.27h0q0-6.78-4.63-10.49t-14-3.68H667.08Zm80.47,37.18V98.86h41.11a59.14,59.14,0,0,1,16.14,2,31.17,31.17,0,0,1,11.33,5.61,22.55,22.55,0,0,1,6.69,8.94,30.93,30.93,0,0,1,2.19,12h0a33.17,33.17,0,0,1-1.08,8.55,24.94,24.94,0,0,1-9,13.56,31.09,31.09,0,0,1-8,4.4h0l17.58,25.87H804.44l-15.21-23h-.46l-24.83,0v23Zm16.39-37.18h25.14a27,27,0,0,0,8.14-1.1,16.42,16.42,0,0,0,5.84-3,12.1,12.1,0,0,0,3.52-4.78,16.21,16.21,0,0,0,1.16-6.27h0q0-6.78-4.66-10.49t-14-3.68H763.94Zm75.7-3.47h0A40.79,40.79,0,0,1,843,122.29a37.75,37.75,0,0,1,9.45-13.05A42.9,42.9,0,0,1,867,100.77a56.64,56.64,0,0,1,18.85-3h0a56.73,56.73,0,0,1,18.83,3,42.62,42.62,0,0,1,14.59,8.47,38,38,0,0,1,9.45,13.05A41,41,0,0,1,932.12,139h0a41.61,41.61,0,0,1-3.37,16.88,38.67,38.67,0,0,1-9.45,13.22,43,43,0,0,1-14.59,8.6,55,55,0,0,1-18.83,3.09h0A54.89,54.89,0,0,1,867,177.74a43.33,43.33,0,0,1-14.57-8.6A38.41,38.41,0,0,1,843,155.92,41.44,41.44,0,0,1,839.64,139Zm16.4,0h0a27.1,27.1,0,0,0,2.26,11.27,24.87,24.87,0,0,0,6.25,8.56,27.87,27.87,0,0,0,9.47,5.46,35.67,35.67,0,0,0,11.86,1.91h0a35.67,35.67,0,0,0,11.86-1.91,27.78,27.78,0,0,0,9.45-5.46,25.24,25.24,0,0,0,6.24-8.56A26.8,26.8,0,0,0,915.72,139h0a26.52,26.52,0,0,0-2.29-11.23,24.17,24.17,0,0,0-6.24-8.38,27.37,27.37,0,0,0-9.45-5.26,37.28,37.28,0,0,0-11.86-1.82h0A37.28,37.28,0,0,0,874,114.17a27.47,27.47,0,0,0-9.47,5.26,23.83,23.83,0,0,0-6.25,8.38A26.82,26.82,0,0,0,856,139Z" transform="translate(0 -1)"/><path d="M446,269.09v-20l-35.31-60.81h18.56l24.89,46,24.54-46h18.58L462.42,249v20.12Z" transform="translate(0 -1)"/><path d="M421.3,358.49V277.67h16.4l29.38,29.48,29.37-29.48h16.4v80.82h-16.4V300.37l-29.37,28.28L437.7,300.37v58.12Zm104.15,0,37.95-80.82h17.39l39.08,80.82H602.65l-6.46-13.6H549l-6.25,13.6Zm29.8-27.09h34.48l-17.47-36.73Zm77.2,27.09V277.67h29.63a81,81,0,0,1,22.54,2.79,43.78,43.78,0,0,1,15.84,8,32,32,0,0,1,9.37,12.62,43,43,0,0,1,3.09,16.67h0A42.39,42.39,0,0,1,709.85,334a34,34,0,0,1-9.3,12.92,44.33,44.33,0,0,1-15.82,8.53,74,74,0,0,1-22.54,3.07h0Zm16.4-14.17h17.26A40.14,40.14,0,0,0,679,342.44a25.31,25.31,0,0,0,9.23-5.36,21.86,21.86,0,0,0,5.55-8.37,30.75,30.75,0,0,0,1.86-11h0A29.29,29.29,0,0,0,693.77,307a21.14,21.14,0,0,0-5.55-8.13,25.69,25.69,0,0,0-9.23-5.15,41.69,41.69,0,0,0-12.88-1.8H648.85Zm80.5,14.17V277.67h68.82v14.38H745.75v16.14h46.43v13.49H745.75v22.49h53.52v14.32Zm88.12,0V277.67h41.11a59.24,59.24,0,0,1,16.14,1.95A30.76,30.76,0,0,1,886,285.23a22.6,22.6,0,0,1,6.71,8.94,30.84,30.84,0,0,1,2.18,11.94h0a33.19,33.19,0,0,1-1.08,8.56,25.58,25.58,0,0,1-3.32,7.48,25.86,25.86,0,0,1-5.68,6.07,30.71,30.71,0,0,1-8,4.41h0l17.58,25.86h-20l-15.21-23h-.47l-24.82,0v23Zm16.39-37.17H859a27.29,27.29,0,0,0,8.15-1.1,16.72,16.72,0,0,0,5.85-3.05,12.13,12.13,0,0,0,3.52-4.79,16.4,16.4,0,0,0,1.16-6.27h0q0-6.78-4.66-10.48t-14-3.69H833.86Zm70.06,37.17,38-80.82h17.37l39.1,80.82H981.13l-6.46-13.6H927.46l-6.25,13.6ZM933.7,331.4h34.51l-17.48-36.73Z" transform="translate(0 -1)"/></g><path d="M100.88,123.47h80.7l-30.26-121H30.26L0,123.47H80.7V335.31H40.35v30.26H141.23V335.31H100.88ZM38.76,93.21,53.89,32.68h73.8l15.13,60.53Z" transform="translate(0 -1)"/><path d="M161.4,365.57H363.16V204.17H161.4Zm30.27-131.14H332.89v40.36H191.67Zm0,60.53H332.89v40.35H191.67Z" transform="translate(0 -1)"/><rect x="252.19" y="243.52" width="20.18" height="20.18"/><rect x="252.19" y="304.05" width="20.18" height="20.18"/><path d="M242.1,143.65H363.16V42.77H242.1Zm20.18-80.71H343v60.53h-80.7Z" transform="translate(0 -1)"/></g></svg>