<svg xmlns="http://www.w3.org/2000/svg" xmlns:xlink="http://www.w3.org/1999/xlink" viewBox="0 0 152.4278588140797 200" height="200" width="152.4278588140797" data-background-color="#d9bca9" preserveAspectRatio="xMidYMid meet" id="tight-bounds"><g><svg viewBox="0 0 324.3369985192725 425.5613127976493" height="200" width="152.4278588140797"><g><rect width="324.3369985192725" height="4.188571138309195" x="0" y="210.96484591180416" fill="#000000" opacity="1" stroke-width="0" stroke="transparent" fill-opacity="1" class="rect-o-0" data-fill-palette-color="primary" rx="1%" id="o-0" data-palette-color="#000000"/></g><g transform="matrix(1,0,0,1,0.8068084540280154,0)"><svg viewBox="0 0 322.7233816112165 200" height="200" width="322.7233816112165"><g><svg viewBox="0 0 322.7233816112165 200" height="200" width="322.7233816112165"><g><svg viewBox="0 0 322.7233816112165 200" height="200" width="322.7233816112165"><g transform="matrix(1,0,0,1,0,0)"><svg width="322.7233816112165" viewBox="0.4400005340576172 -38.15999984741211 277.44000244140625 164.80999755859375" height="200" data-palette-color="#000000"><svg/><svg/><svg/><svg/><g class="undefined-text-0" data-fill-palette-color="primary" id="text-0"><path xmlns="http://www.w3.org/2000/svg" d="M5.42 0v-38.16h13.99c4.087 0 7.633 0.44 10.64 1.32 3.013 0.88 5.51 2.137 7.49 3.77 1.973 1.633 3.447 3.62 4.42 5.96 0.967 2.333 1.45 4.957 1.45 7.87v0c0 2.767-0.48 5.327-1.44 7.68-0.96 2.353-2.427 4.387-4.4 6.1-1.967 1.72-4.457 3.063-7.47 4.03-3.007 0.967-6.553 1.45-10.64 1.45v0zM13.16-6.69h8.15c2.313 0 4.34-0.297 6.08-0.89 1.74-0.593 3.193-1.437 4.36-2.53 1.167-1.087 2.043-2.403 2.63-3.95 0.58-1.547 0.87-3.273 0.87-5.18v0c0-1.873-0.29-3.56-0.87-5.06-0.587-1.507-1.463-2.787-2.63-3.84-1.167-1.047-2.62-1.857-4.36-2.43-1.74-0.567-3.767-0.85-6.08-0.85v0h-8.15zM51.17 0v-38.16h32.5v6.79h-24.76v7.62h21.92v6.37h-21.92v10.62h25.27v6.76z" fill="#000000" fill-rule="nonzero" stroke="none" stroke-width="1" stroke-linecap="butt" stroke-linejoin="miter" stroke-miterlimit="10" stroke-dasharray="" stroke-dashoffset="0" font-family="none" font-weight="none" font-size="none" text-anchor="none" style="mix-blend-mode: normal" data-fill-palette-color="primary" opacity="1"/><path xmlns="http://www.w3.org/2000/svg" d="M5.4 42.21v-38.16h7.73v9.96h23.74v-9.96h7.76v38.16h-7.76v-21.58h-23.74v21.58zM54.49 42.21v-38.16h7.79v38.16zM72.14 42.21v-38.16h32.5v6.79h-24.76v7.62h21.93v6.37h-21.93v10.62h25.27v6.76zM113.75 42.21v-38.16h19.4c2.933 0 5.473 0.307 7.62 0.92 2.147 0.607 3.93 1.49 5.35 2.65 1.413 1.153 2.467 2.56 3.16 4.22 0.693 1.66 1.04 3.54 1.04 5.64v0c0 1.413-0.173 2.76-0.52 4.04-0.34 1.28-0.863 2.457-1.57 3.53-0.707 1.073-1.597 2.03-2.67 2.87-1.073 0.833-2.337 1.527-3.79 2.08v0l8.3 12.21h-9.47l-7.18-10.84h-0.22l-11.72-0.02v10.86zM121.48 24.66h11.87c1.467 0 2.747-0.173 3.84-0.52 1.1-0.34 2.02-0.82 2.76-1.44 0.74-0.613 1.293-1.367 1.66-2.26 0.367-0.887 0.55-1.873 0.55-2.96v0c0-2.133-0.73-3.783-2.19-4.95-1.467-1.16-3.673-1.74-6.62-1.74v0h-11.87zM159.47 42.21v-38.16h19.41c2.933 0 5.473 0.307 7.62 0.92 2.147 0.607 3.93 1.49 5.35 2.65 1.413 1.153 2.467 2.56 3.16 4.22 0.687 1.66 1.03 3.54 1.03 5.64v0c0 1.413-0.17 2.76-0.51 4.04-0.34 1.28-0.863 2.457-1.57 3.53-0.707 1.073-1.6 2.03-2.68 2.87-1.073 0.833-2.333 1.527-3.78 2.08v0l8.3 12.21h-9.47l-7.18-10.84h-0.22l-11.72-0.02v10.86zM167.21 24.66h11.87c1.46 0 2.74-0.173 3.84-0.52 1.1-0.34 2.02-0.82 2.76-1.44 0.74-0.613 1.293-1.367 1.66-2.26 0.367-0.887 0.55-1.873 0.55-2.96v0c0-2.133-0.733-3.783-2.2-4.95-1.46-1.16-3.663-1.74-6.61-1.74v0h-11.87zM202.95 23.02v0c0-2.88 0.53-5.517 1.59-7.91 1.06-2.393 2.547-4.447 4.46-6.16 1.913-1.72 4.207-3.053 6.88-4 2.68-0.94 5.647-1.41 8.9-1.41v0c3.24 0 6.203 0.47 8.89 1.41 2.687 0.947 4.983 2.28 6.89 4 1.913 1.713 3.4 3.767 4.46 6.16 1.06 2.393 1.59 5.03 1.59 7.91v0c0 2.9-0.53 5.557-1.59 7.97-1.06 2.42-2.547 4.5-4.46 6.24-1.907 1.74-4.203 3.093-6.89 4.06-2.687 0.973-5.65 1.46-8.89 1.46v0c-3.253 0-6.22-0.487-8.9-1.46-2.673-0.967-4.967-2.32-6.88-4.06-1.913-1.74-3.4-3.82-4.46-6.24-1.06-2.413-1.59-5.07-1.59-7.97zM210.69 23.02v0c0 1.967 0.357 3.74 1.07 5.32 0.707 1.58 1.69 2.927 2.95 4.04 1.26 1.12 2.75 1.98 4.47 2.58 1.713 0.6 3.58 0.9 5.6 0.9v0c2.02 0 3.887-0.3 5.6-0.9 1.72-0.6 3.207-1.46 4.46-2.58 1.253-1.113 2.237-2.46 2.95-4.04 0.72-1.58 1.08-3.353 1.08-5.32v0c0-1.967-0.36-3.733-1.08-5.3-0.713-1.56-1.697-2.88-2.95-3.96-1.253-1.087-2.74-1.913-4.46-2.48-1.713-0.573-3.58-0.86-5.6-0.86v0c-2.02 0-3.887 0.287-5.6 0.86-1.72 0.567-3.21 1.393-4.47 2.48-1.26 1.08-2.243 2.4-2.95 3.96-0.713 1.567-1.07 3.333-1.07 5.3z" fill="#000000" fill-rule="nonzero" stroke="none" stroke-width="1" stroke-linecap="butt" stroke-linejoin="miter" stroke-miterlimit="10" stroke-dasharray="" stroke-dashoffset="0" font-family="none" font-weight="none" font-size="none" text-anchor="none" style="mix-blend-mode: normal" data-fill-palette-color="primary" opacity="1"/><path xmlns="http://www.w3.org/2000/svg" d="M17.11 84.42v-9.45l-16.67-28.71h8.76l11.75 21.7 11.59-21.7h8.77l-16.46 28.66v9.5z" fill="#000000" fill-rule="nonzero" stroke="none" stroke-width="1" stroke-linecap="butt" stroke-linejoin="miter" stroke-miterlimit="10" stroke-dasharray="" stroke-dashoffset="0" font-family="none" font-weight="none" font-size="none" text-anchor="none" style="mix-blend-mode: normal" data-fill-palette-color="primary" opacity="1"/><path xmlns="http://www.w3.org/2000/svg" d="M5.44 126.63v-38.16h7.74l13.87 13.92 13.87-13.92h7.74v38.16h-7.74v-27.44l-13.87 13.35-13.87-13.35v27.44zM54.61 126.63l17.92-38.16h8.21l18.45 38.16h-8.13l-3.05-6.42h-22.29l-2.95 6.42zM68.68 113.84h16.28l-8.25-17.34zM105.13 126.63v-38.16h13.99c4.08 0 7.627 0.44 10.64 1.32 3.013 0.88 5.507 2.137 7.48 3.77 1.98 1.633 3.453 3.62 4.42 5.96 0.973 2.333 1.46 4.957 1.46 7.87v0c0 2.767-0.483 5.327-1.45 7.68-0.96 2.353-2.423 4.387-4.39 6.1-1.967 1.72-4.457 3.063-7.47 4.03-3.013 0.967-6.56 1.45-10.64 1.45v0zM112.87 119.94h8.15c2.313 0 4.34-0.297 6.08-0.89 1.74-0.593 3.193-1.437 4.36-2.53 1.16-1.087 2.033-2.403 2.62-3.95 0.587-1.547 0.88-3.273 0.88-5.18v0c0-1.873-0.293-3.56-0.88-5.06-0.587-1.507-1.46-2.787-2.62-3.84-1.167-1.047-2.62-1.857-4.36-2.43-1.74-0.567-3.767-0.85-6.08-0.85v0h-8.15zM150.88 126.63v-38.16h32.49v6.79h-24.75v7.62h21.92v6.37h-21.92v10.62h25.27v6.76zM192.48 126.63v-38.16h19.41c2.927 0 5.467 0.307 7.62 0.92 2.147 0.607 3.927 1.49 5.34 2.65 1.42 1.153 2.477 2.56 3.17 4.22 0.687 1.66 1.03 3.54 1.03 5.64v0c0 1.413-0.17 2.76-0.51 4.04-0.34 1.28-0.863 2.457-1.57 3.53-0.713 1.073-1.607 2.03-2.68 2.87-1.073 0.833-2.333 1.527-3.78 2.08v0l8.3 12.21h-9.47l-7.18-10.84h-0.22l-11.72-0.02v10.86zM200.22 109.08h11.86c1.467 0 2.75-0.173 3.85-0.52 1.1-0.34 2.02-0.82 2.76-1.44 0.74-0.613 1.293-1.367 1.66-2.26 0.367-0.887 0.55-1.873 0.55-2.96v0c0-2.133-0.733-3.783-2.2-4.95-1.467-1.16-3.673-1.74-6.62-1.74v0h-11.86zM233.3 126.63l17.92-38.16h8.2l18.46 38.16h-8.13l-3.05-6.42h-22.29l-2.95 6.42zM247.36 113.84h16.29l-8.25-17.34z" fill="#000000" fill-rule="nonzero" stroke="none" stroke-width="1" stroke-linecap="butt" stroke-linejoin="miter" stroke-miterlimit="10" stroke-dasharray="" stroke-dashoffset="0" font-family="none" font-weight="none" font-size="none" text-anchor="none" style="mix-blend-mode: normal" data-fill-palette-color="primary" opacity="1"/></g></svg></g></svg></g></svg></g></svg></g><g transform="matrix(1,0,0,1,62.44697434177037,226.1182629619175)"><svg viewBox="0 0 199.44304983573178 199.44304983573178" height="199.44304983573178" width="199.44304983573178"><g><svg xmlns="http://www.w3.org/2000/svg" xmlns:xlink="http://www.w3.org/1999/xlink" version="1.2" baseProfile="tiny" x="0" y="0" viewBox="5 5 90 90" xml:space="preserve" height="199.44304983573178" width="199.44304983573178" class="icon-icon-0" data-fill-palette-color="accent" id="icon-0"><path d="M30 35h20L42.5 5h-30L5 35h20v52.5H15V95h25v-7.5H30V35zM14.606 27.5l3.75-15h18.288l3.75 15H14.606z" fill="#000000" data-fill-palette-color="accent"/><path d="M45 95h50V55H45V95zM52.5 62.5h35v10h-35V62.5zM52.5 77.5h35v10h-35V77.5z" fill="#000000" data-fill-palette-color="accent"/><rect x="67.5" y="65" width="5" height="5" fill="#000000" data-fill-palette-color="accent"/><rect x="67.5" y="80" width="5" height="5" fill="#000000" data-fill-palette-color="accent"/><path d="M65 40h30V15H65V40zM70 20h20v15H70V20z" fill="#000000" data-fill-palette-color="accent"/></svg></g></svg></g><g/></svg></g><defs/></svg>