<?xml version="1.0" encoding="iso-8859-1"?>
<!-- Uploaded to: SVG Repo, www.svgrepo.com, Generator: SVG Repo Mixer Tools -->
<svg fill="#000000" height="800px" width="800px" version="1.1" id="Layer_1" xmlns="http://www.w3.org/2000/svg" xmlns:xlink="http://www.w3.org/1999/xlink" 
	 viewBox="0 0 511.997 511.997" xml:space="preserve">
<g>
	<g>
		<path d="M122.599,487.308c-3.356-3.353-8.345-4.9-13.046-3.947c-0.926,0.19-1.837,0.463-2.719,0.824
			c-0.868,0.362-1.707,0.811-2.488,1.331c-0.796,0.521-1.533,1.128-2.198,1.793c-2.69,2.69-4.238,6.42-4.238,10.226
			c0,0.953,0.101,1.895,0.289,2.835c0.188,0.926,0.463,1.837,0.824,2.705c0.362,0.868,0.81,1.707,1.331,2.488
			c0.521,0.795,1.128,1.533,1.793,2.213c0.665,0.665,1.403,1.257,2.198,1.792c0.781,0.521,1.62,0.969,2.488,1.331
			c0.882,0.362,1.793,0.636,2.719,0.824c0.926,0.188,1.88,0.275,2.82,0.275c3.804,0,7.536-1.535,10.226-4.223
			c0.665-0.681,1.273-1.417,1.793-2.213c0.521-0.781,0.969-1.62,1.331-2.488c0.362-0.869,0.651-1.779,0.839-2.705
			c0.188-0.94,0.275-1.882,0.275-2.835C126.837,493.728,125.29,489.998,122.599,487.308z"/>
	</g>
</g>
<g>
	<g>
		<path d="M409.847,487.309c-3.356-3.354-8.346-4.902-13.046-3.949c-0.926,0.19-1.837,0.463-2.705,0.824
			c-0.882,0.362-1.721,0.811-2.502,1.331c-0.795,0.521-1.533,1.128-2.198,1.793c-0.665,0.665-1.273,1.416-1.793,2.198
			c-0.521,0.797-0.969,1.636-1.331,2.502c-0.362,0.866-0.636,1.778-0.824,2.705c-0.188,0.939-0.289,1.88-0.289,2.82
			c0,0.953,0.101,1.895,0.289,2.835c0.188,0.926,0.463,1.837,0.824,2.705s0.81,1.707,1.331,2.488
			c0.521,0.795,1.128,1.533,1.793,2.213c0.665,0.665,1.403,1.257,2.198,1.792c0.781,0.521,1.62,0.969,2.502,1.331
			c0.868,0.362,1.779,0.636,2.705,0.824c0.926,0.188,1.88,0.275,2.82,0.275s1.895-0.088,2.82-0.275
			c0.926-0.188,1.837-0.463,2.719-0.824c0.868-0.362,1.707-0.81,2.488-1.331c0.795-0.535,1.533-1.127,2.198-1.792
			c0.665-0.681,1.273-1.417,1.808-2.213c0.521-0.781,0.969-1.62,1.331-2.488c0.362-0.869,0.636-1.779,0.824-2.705
			c0.188-0.94,0.275-1.882,0.275-2.835C414.084,493.73,412.537,489.999,409.847,487.309z"/>
	</g>
</g>
<g>
	<g>
		<path d="M400.755,212.907L374.933,55.103C369.709,23.174,342.433,0,310.079,0H201.916c-32.355,0-59.629,23.174-64.853,55.103
			L111.24,212.907c-8.377,11.661-13.33,25.938-13.33,41.357v24.883v70.872v104.132c0,7.987,6.475,14.464,14.464,14.464
			c7.988,0,14.464-6.477,14.464-14.464v-89.669H385.16v89.669c0,7.987,6.475,14.464,14.464,14.464
			c7.988,0,14.464-6.477,14.464-14.464V350.019v-70.872v-24.883C414.086,238.845,409.132,224.568,400.755,212.907z M165.608,59.775
			c2.926-17.874,18.195-30.848,36.307-30.848h108.163c18.113,0,33.382,12.974,36.307,30.848l20.891,127.67
			c-2.123-0.769-4.29-1.428-6.485-1.992c-0.038-0.01-0.074-0.019-0.111-0.027c-1.017-0.26-2.041-0.496-3.071-0.71
			c-0.252-0.054-0.506-0.1-0.759-0.15c-0.826-0.162-1.656-0.312-2.489-0.447c-0.347-0.055-0.694-0.108-1.043-0.159
			c-0.762-0.11-1.529-0.207-2.297-0.292c-0.382-0.043-0.764-0.09-1.147-0.126c-0.785-0.075-1.575-0.132-2.365-0.181
			c-0.353-0.022-0.703-0.052-1.057-0.069c-1.137-0.053-2.278-0.087-3.424-0.087H168.968c-1.146,0-2.287,0.032-3.424,0.087
			c-0.354,0.017-0.704,0.048-1.057,0.069c-0.791,0.049-1.579,0.106-2.365,0.181c-0.383,0.036-0.765,0.082-1.147,0.126
			c-0.768,0.087-1.535,0.182-2.297,0.292c-0.349,0.051-0.696,0.104-1.043,0.159c-0.833,0.135-1.663,0.284-2.489,0.447
			c-0.253,0.051-0.508,0.097-0.759,0.15c-1.03,0.214-2.054,0.451-3.071,0.71c-0.038,0.009-0.074,0.017-0.111,0.027
			c-2.197,0.564-4.362,1.222-6.486,1.992L165.608,59.775z M126.836,254.264c0-10.155,3.612-19.481,9.615-26.763
			c0.045-0.054,0.091-0.104,0.136-0.158c4.663-5.599,10.745-9.973,17.69-12.565c0.101-0.038,0.201-0.078,0.302-0.114
			c0.49-0.179,0.988-0.343,1.488-0.505c0.216-0.069,0.43-0.14,0.646-0.205c0.437-0.135,0.877-0.257,1.319-0.376
			c0.292-0.08,0.584-0.153,0.879-0.226c0.395-0.097,0.79-0.189,1.189-0.275c0.354-0.075,0.709-0.145,1.066-0.211
			c0.359-0.068,0.716-0.136,1.078-0.194c0.412-0.067,0.826-0.12,1.241-0.174c0.32-0.042,0.638-0.088,0.959-0.123
			c0.487-0.052,0.979-0.088,1.471-0.123c0.259-0.019,0.515-0.045,0.774-0.059c0.756-0.04,1.516-0.064,2.278-0.064h174.059
			c0.762,0,1.522,0.023,2.278,0.064c0.26,0.014,0.516,0.041,0.774,0.059c0.492,0.035,0.982,0.071,1.471,0.123
			c0.321,0.035,0.639,0.081,0.959,0.123c0.415,0.053,0.829,0.107,1.241,0.174c0.362,0.059,0.719,0.126,1.078,0.194
			c0.356,0.067,0.712,0.136,1.065,0.211c0.399,0.087,0.795,0.179,1.19,0.275c0.294,0.072,0.586,0.148,0.876,0.226
			c0.443,0.119,0.884,0.242,1.32,0.376c0.216,0.065,0.431,0.136,0.645,0.204c0.499,0.161,0.997,0.327,1.488,0.506
			c0.101,0.036,0.201,0.077,0.302,0.114c6.945,2.592,13.029,6.964,17.69,12.565c0.045,0.054,0.091,0.104,0.136,0.158
			c6.005,7.282,9.615,16.609,9.615,26.763v10.42H126.836V254.264z M385.159,335.556H126.836v-41.944h258.323V335.556z"/>
	</g>
</g>
</svg>